<?xml version="1.0" encoding="UTF-8"?>
<svg id="logo" xmlns="http://www.w3.org/2000/svg" viewBox="0 0 107 32">
  <defs>
    <style>
      .cls-1 {
        fill: #fdb926;
      }

      .cls-2 {
        fill: #fff;
      }

      .cls-3 {
        fill: #1e2222;
      }

      .cls-4 {
        fill: #f2f3f2;
      }
    </style>
  </defs>
  <g id="text">
    <g>
      <g>
        <path class="cls-3" d="M66.64,24.72h-.37v-2.2h1.64c.12,0,.23.02.33.07.1.05.19.11.27.18.08.08.14.17.18.27.04.1.07.21.07.33v1.34h-.37v-1.34c0-.07-.01-.13-.04-.19-.02-.06-.06-.11-.11-.16-.05-.04-.1-.08-.16-.1s-.12-.04-.19-.04h-.23v1.83h-.37v-1.83h-.68v1.83Z"/>
        <path class="cls-3" d="M71.59,24.73h-.37v-.7h-1.5v.7h-.37v-1.47c0-.1.02-.2.06-.28.04-.09.09-.17.16-.23.07-.07.14-.12.23-.16s.18-.06.29-.06h.76c.1,0,.2.02.29.06.09.04.17.09.23.16.07.07.12.14.16.23.04.09.06.18.06.28v1.47ZM69.73,23.66h1.5v-.41c0-.05,0-.1-.03-.14-.02-.04-.04-.08-.08-.12-.03-.03-.07-.06-.12-.08-.05-.02-.09-.03-.14-.03h-.76c-.05,0-.1,0-.14.03-.04.02-.08.04-.12.08-.03.03-.06.07-.08.12-.02.04-.03.09-.03.14v.41Z"/>
        <path class="cls-3" d="M74.3,24.72h-.37v-1.09c0-.11-.02-.2-.06-.29-.04-.09-.09-.17-.16-.24s-.14-.12-.23-.16c-.09-.04-.18-.06-.29-.06h-.62v1.83h-.37v-2.2h.99c.15,0,.3.03.43.09.13.06.25.14.35.24s.18.22.24.35.09.28.09.43v1.1Z"/>
        <path class="cls-3" d="M77.14,24.73h-.37v-.7h-1.5v.7h-.37v-1.47c0-.1.02-.2.06-.28.04-.09.09-.17.16-.23.07-.07.14-.12.23-.16s.18-.06.29-.06h.76c.1,0,.2.02.29.06.09.04.17.09.23.16.07.07.12.14.16.23.04.09.06.18.06.28v1.47ZM75.28,23.66h1.5v-.41c0-.05,0-.1-.03-.14-.02-.04-.04-.08-.08-.12-.03-.03-.07-.06-.12-.08-.05-.02-.09-.03-.14-.03h-.76c-.05,0-.1,0-.14.03-.04.02-.08.04-.12.08-.03.03-.06.07-.08.12-.02.04-.03.09-.03.14v.41Z"/>
        <path class="cls-3" d="M78.87,24.72c-.15,0-.3-.03-.43-.09-.13-.06-.25-.14-.35-.24s-.18-.22-.23-.35c-.06-.13-.09-.28-.09-.43s.03-.3.09-.43c.06-.13.14-.25.23-.35.1-.1.22-.18.35-.24.13-.06.28-.09.43-.09h.98v.37h-.98c-.13,0-.25.03-.36.09-.11.06-.19.14-.25.24-.06.1-.1.21-.12.33-.01.12,0,.24.06.37.05.11.13.21.22.29.1.08.21.12.33.14.02,0,.06,0,.14,0s.15,0,.23,0h.36v-.49h-.73v-.37h1.1v1.22h-.98Z"/>
        <path class="cls-3" d="M82.59,24.72h-1.47c-.09,0-.17-.02-.25-.05-.08-.03-.15-.08-.2-.14-.06-.06-.1-.12-.14-.2-.03-.08-.05-.16-.05-.25h0v-.97c0-.08.02-.16.06-.24.04-.07.08-.14.14-.19s.12-.1.2-.13c.08-.03.16-.05.24-.05h1.47v.37h-1.47c-.07,0-.13.02-.18.07s-.08.1-.09.17v.32h1.73v.37h-1.73v.27c0,.08.03.14.08.2.05.05.12.08.2.08h1.47v.37Z"/>
        <path class="cls-3" d="M84.28,22.53c.15,0,.3.03.43.09.13.06.25.14.35.24s.18.22.24.35c.06.13.09.28.09.43s-.03.3-.09.43c-.06.13-.14.25-.24.35s-.22.18-.35.24c-.13.06-.28.09-.43.09h-1.05v-2.2h1.05ZM84.28,24.36c.1,0,.2-.02.29-.06.09-.04.16-.09.23-.16s.12-.14.16-.23c.04-.09.06-.18.06-.29s-.02-.2-.06-.28c-.04-.09-.09-.17-.16-.23s-.14-.12-.23-.16c-.09-.04-.18-.06-.29-.06h-.69v1.46h.69Z"/>
        <path class="cls-3" d="M89.47,22.89h-1.65c-.08,0-.14.03-.2.08-.05.05-.08.12-.08.2s.03.14.08.2c.05.05.12.08.2.08h1.01c.09,0,.17.02.25.05s.15.08.2.14c.06.06.1.13.14.2.03.08.05.16.05.25s-.02.17-.05.25c-.03.08-.08.15-.14.2-.06.06-.13.1-.2.14s-.16.05-.25.05h-1.66v-.37h1.66c.08,0,.14-.03.19-.08.05-.05.08-.12.08-.2s-.03-.14-.08-.2-.12-.08-.19-.08h-1.01c-.09,0-.17-.02-.25-.05s-.15-.08-.2-.14c-.06-.06-.1-.13-.14-.2-.03-.08-.05-.16-.05-.25s.02-.17.05-.25c.03-.08.08-.15.14-.2.06-.06.13-.1.2-.14s.16-.05.25-.05h1.66v.37Z"/>
        <path class="cls-3" d="M92.22,24.72h-1.47c-.09,0-.17-.02-.25-.05-.08-.03-.15-.08-.2-.14-.06-.06-.1-.12-.14-.2-.03-.08-.05-.16-.05-.25h0v-.97c0-.08.02-.16.06-.24.04-.07.08-.14.14-.19s.12-.1.2-.13c.08-.03.16-.05.24-.05h1.47v.37h-1.47c-.07,0-.13.02-.18.07s-.08.1-.09.17v.32h1.73v.37h-1.73v.27c0,.08.03.14.08.2.05.05.12.08.2.08h1.47v.37Z"/>
        <path class="cls-3" d="M95.07,23.27c0,.1-.02.2-.06.29-.04.09-.09.17-.16.24-.07.07-.15.12-.24.16-.09.04-.19.06-.29.06l.6.71h-.48l-.59-.71h-.65v.71h-.36v-2.2h1.48c.1,0,.2.02.29.06.09.04.17.09.24.16.07.07.12.15.16.24.04.09.06.19.06.29ZM94.32,23.65c.05,0,.1,0,.15-.03s.09-.05.12-.08c.03-.04.06-.08.08-.12s.03-.09.03-.15,0-.1-.03-.15-.05-.08-.08-.12c-.03-.03-.08-.06-.12-.08s-.1-.03-.15-.03h-1.12v.76h1.12Z"/>
        <path class="cls-3" d="M95.67,22.52h.36v1.09c0,.11.02.2.06.29s.09.17.16.24c.07.07.14.12.23.16s.18.06.29.06h.62v-1.83h.37v2.2h-.99c-.15,0-.3-.03-.43-.09-.13-.06-.25-.14-.35-.24s-.18-.22-.24-.35c-.06-.13-.09-.28-.09-.43v-1.1Z"/>
        <path class="cls-3" d="M98.74,24.72h-.37v-2.2h.37v2.2Z"/>
        <path class="cls-3" d="M101.34,22.89h-.9c-.1,0-.2.02-.28.06-.09.04-.17.09-.23.16-.07.07-.12.14-.16.23s-.06.18-.06.29.02.2.06.28c.04.09.09.17.16.23.07.07.14.12.23.16.09.04.18.06.28.06h.9v.37h-.9c-.15,0-.3-.03-.43-.09-.13-.06-.25-.14-.35-.24s-.18-.22-.23-.35c-.06-.13-.09-.28-.09-.43s.03-.3.09-.43c.06-.13.14-.25.23-.35.1-.1.22-.18.35-.24.13-.06.28-.09.43-.09h.9v.37Z"/>
        <path class="cls-3" d="M104.08,24.72h-1.47c-.09,0-.17-.02-.25-.05-.08-.03-.15-.08-.2-.14-.06-.06-.1-.12-.14-.2-.03-.08-.05-.16-.05-.25h0v-.97c0-.08.02-.16.06-.24.04-.07.08-.14.14-.19s.12-.1.2-.13c.08-.03.16-.05.24-.05h1.47v.37h-1.47c-.07,0-.13.02-.18.07s-.08.1-.09.17v.32h1.73v.37h-1.73v.27c0,.08.03.14.08.2.05.05.12.08.2.08h1.47v.37Z"/>
        <path class="cls-3" d="M107,22.89h-1.65c-.08,0-.14.03-.2.08-.05.05-.08.12-.08.2s.03.14.08.2c.05.05.12.08.2.08h1.01c.09,0,.17.02.25.05s.15.08.2.14c.06.06.1.13.14.2.03.08.05.16.05.25s-.02.17-.05.25c-.03.08-.08.15-.14.2-.06.06-.13.1-.2.14s-.16.05-.25.05h-1.66v-.37h1.66c.08,0,.14-.03.19-.08.05-.05.08-.12.08-.2s-.03-.14-.08-.2-.12-.08-.19-.08h-1.01c-.09,0-.17-.02-.25-.05s-.15-.08-.2-.14c-.06-.06-.1-.13-.14-.2-.03-.08-.05-.16-.05-.25s.02-.17.05-.25c.03-.08.08-.15.14-.2.06-.06.13-.1.2-.14s.16-.05.25-.05h1.66v.37Z"/>
      </g>
      <g>
        <path class="cls-3" d="M9.17,18.31H2.8c-.38,0-.74-.07-1.08-.22-.34-.14-.63-.34-.88-.59-.25-.25-.45-.54-.6-.87-.15-.33-.22-.69-.22-1.07h-.01v-4.19c.02-.36.11-.7.26-1.02.15-.32.35-.59.6-.83.25-.24.54-.43.87-.56.33-.13.68-.2,1.05-.2h6.37v1.59H2.78c-.31,0-.57.1-.79.29-.22.2-.35.44-.4.72v1.39h7.48v1.59H1.59v1.16c0,.33.12.62.35.85.23.23.52.34.85.34h6.37v1.59Z"/>
        <path class="cls-3" d="M13.47,8.76v7.95h5.94v1.59h-7.53v-9.54h1.59Z"/>
        <path class="cls-3" d="M23.68,18.31h-1.59v-9.53h1.59v9.53Z"/>
        <path class="cls-3" d="M34.09,10.37h-3.2v7.94h-1.59v-7.94h-3.17v-1.59h7.96v1.59Z"/>
        <path class="cls-3" d="M45.72,18.31h-6.37c-.38,0-.74-.07-1.08-.22-.34-.14-.63-.34-.88-.59-.25-.25-.45-.54-.6-.87-.15-.33-.22-.69-.22-1.07h-.01v-4.19c.02-.36.11-.7.26-1.02.15-.32.35-.59.6-.83.25-.24.54-.43.87-.56.33-.13.68-.2,1.05-.2h6.37v1.59h-6.37c-.31,0-.57.1-.79.29-.22.2-.35.44-.4.72v1.39h7.48v1.59h-7.48v1.16c0,.33.12.62.35.85.23.23.52.34.85.34h6.37v1.59Z"/>
      </g>
      <g>
        <path class="cls-3" d="M61.85,10.14h-7.16c-.33,0-.62.11-.85.34-.23.23-.35.51-.35.85s.12.62.35.85c.23.23.52.34.85.34h4.38c.38,0,.74.07,1.08.22.34.15.63.35.88.6s.45.54.59.88.22.7.22,1.08-.07.74-.22,1.08c-.15.34-.35.63-.6.88-.25.25-.54.45-.88.6-.34.15-.7.22-1.08.22h-7.17v-1.59h7.17c.33,0,.62-.11.85-.34s.34-.51.34-.85-.11-.62-.34-.85-.51-.34-.85-.34h-4.39c-.39,0-.76-.07-1.09-.22-.33-.15-.63-.35-.88-.6-.25-.25-.45-.54-.6-.88-.14-.34-.21-.7-.21-1.08s.07-.74.21-1.08c.14-.34.34-.63.6-.88.25-.25.55-.45.88-.6.33-.15.7-.22,1.09-.22h7.17v1.59Z"/>
        <path class="cls-3" d="M72.27,10.15h-3.2v7.94h-1.59v-7.94h-3.17v-1.59h7.96v1.59Z"/>
        <path class="cls-3" d="M84.26,18.1h-1.59v-3.01h-6.49v3.01h-1.59v-6.37c0-.44.08-.85.25-1.23.17-.38.39-.72.68-1,.29-.29.62-.51,1-.68.38-.17.79-.25,1.23-.25h3.31c.44,0,.85.08,1.24.25.39.17.72.39,1.01.68.29.29.51.62.68,1,.17.38.25.79.25,1.23v6.37ZM76.18,13.5h6.49v-1.76c0-.22-.04-.43-.12-.62-.08-.19-.19-.36-.34-.5-.14-.14-.31-.26-.51-.34-.2-.08-.4-.12-.62-.12h-3.31c-.22,0-.42.04-.62.12-.19.08-.36.19-.5.34-.14.14-.26.31-.34.5-.09.19-.13.4-.13.62v1.76Z"/>
        <path class="cls-3" d="M96.57,11.81c0,.45-.08.87-.25,1.26-.17.39-.4.74-.7,1.03-.3.3-.64.53-1.03.7s-.81.25-1.26.25l2.6,3.07h-2.07l-2.55-3.07h-2.83v3.06h-1.56v-9.53h6.4c.45,0,.87.08,1.27.25.4.17.74.4,1.03.7.29.3.52.64.7,1.03.17.39.26.81.26,1.25ZM93.32,13.46c.23,0,.45-.04.65-.13s.38-.21.53-.36.27-.33.35-.52c.09-.2.13-.41.13-.64s-.04-.44-.13-.64c-.09-.2-.2-.37-.35-.52-.15-.15-.32-.27-.53-.35s-.42-.13-.65-.13h-4.84v3.29h4.84Z"/>
        <path class="cls-3" d="M106.92,10.15h-3.2v7.94h-1.59v-7.94h-3.17v-1.59h7.96v1.59Z"/>
      </g>
      <g>
        <rect class="cls-1" x="0" y="22.53" width="16.46" height="2.25"/>
        <rect class="cls-2" x="16.46" y="22.53" width="31.29" height="2.25"/>
        <rect class="cls-4" x="47.76" y="22.53" width="16.42" height="2.25"/>
      </g>
    </g>
  </g>
</svg>